<svg xmlns="http://www.w3.org/2000/svg" width="195" height="150.299" viewBox="0 0 195 150.299"><defs><style>.a,.b{fill:#e63131;}.a{opacity:0.058;}.c{fill:#fff;font-size:35px;font-family:Inter-Bold, Inter;font-weight:700;letter-spacing:-0.05em;}</style></defs><g transform="translate(-772.004 -6430)"><g transform="translate(-69 -21)"><path class="a" d="M50,0h80a0,0,0,0,1,0,0V130a0,0,0,0,1,0,0H0a0,0,0,0,1,0,0V50A50,50,0,0,1,50,0Z" transform="translate(906.004 6451)"/><g transform="translate(921.116 6501.416)"><path class="b" d="M95.89,0H5.995A5.161,5.161,0,0,0,1,5.3V77.939a5.161,5.161,0,0,0,4.994,5.3H34.931L31.6,89.9h-5.63a4.994,4.994,0,0,0,0,9.988H75.913a4.994,4.994,0,0,0,0-9.988h-5.63l-3.329-6.659H95.89a5.161,5.161,0,0,0,4.994-5.3V5.3A5.161,5.161,0,0,0,95.89,0ZM4.33,11.653H49.277V48.277H4.33Zm48.277,0H97.554V48.277H52.607ZM97.554,51.606V69.918H52.607V51.606Zm0-46.309V8.324H52.607V3.329H95.89A1.859,1.859,0,0,1,97.554,5.3ZM5.995,3.329H49.277V8.324H4.33V5.3A1.859,1.859,0,0,1,5.995,3.329Zm71.583,91.56a1.665,1.665,0,0,1-1.665,1.665H25.971a1.665,1.665,0,0,1,0-3.329H75.913A1.665,1.665,0,0,1,77.578,94.889ZM66.561,89.9H35.324l3.329-6.659H63.231ZM95.89,79.907H5.995A1.86,1.86,0,0,1,4.33,77.939V73.248h6.659a1.665,1.665,0,0,0,0-3.329H4.33V51.606H49.277V69.918H17.648a1.665,1.665,0,0,0,0,3.329H97.554v4.691A1.86,1.86,0,0,1,95.89,79.907Z" transform="translate(-0.999 0)"/><path class="b" d="M52.322,20.435a4.893,4.893,0,0,0,.666-2.44A4.994,4.994,0,0,0,47.994,13H45.5A2.5,2.5,0,0,0,43,15.5V27.15a2.5,2.5,0,0,0,2.5,2.5h4.162a5.061,5.061,0,0,0,4.994-4.994A4.994,4.994,0,0,0,52.322,20.435Zm-4.328-4.105a1.665,1.665,0,0,1,1.665,1.665,1.731,1.731,0,0,1-1.665,1.665H46.329V16.329Zm1.665,9.988H46.329V22.988h3.329a1.665,1.665,0,0,1,1.665,1.665A1.753,1.753,0,0,1,49.659,26.318Z" transform="translate(26.92 8.641)"/><path class="b" d="M51.982,9A14.983,14.983,0,1,0,66.965,23.983,14.982,14.982,0,0,0,51.982,9Zm0,26.636A11.653,11.653,0,1,1,63.635,23.983,11.653,11.653,0,0,1,51.982,35.636Z" transform="translate(22.932 5.983)"/><path class="b" d="M22.982,9A14.983,14.983,0,1,0,37.965,23.983,14.982,14.982,0,0,0,22.982,9Zm0,26.636A11.653,11.653,0,1,1,34.635,23.983,11.653,11.653,0,0,1,22.982,35.636Z" transform="translate(3.655 5.983)"/><path class="b" d="M22.816,15.317a3.316,3.316,0,0,0-6.326,0L13.074,25.805a1.665,1.665,0,0,0,3.163,1.032l.712-2.182h5.405l.709,2.181a1.665,1.665,0,0,0,1.583,1.149,1.686,1.686,0,0,0,.516-.082,1.665,1.665,0,0,0,1.067-2.1Zm-4.784,6.008,1.621-4.978,1.618,4.978Z" transform="translate(6.985 8.64)"/><path class="b" d="M14.994,42.988H28.312a4.994,4.994,0,0,0,0-9.988H14.994a4.994,4.994,0,0,0,0,9.988Zm0-6.659H28.312a1.665,1.665,0,0,1,0,3.329H14.994a1.665,1.665,0,0,1,0-3.329Z" transform="translate(4.984 21.936)"/><path class="b" d="M43.994,42.988H57.312a4.994,4.994,0,0,0,0-9.988H43.994a4.994,4.994,0,0,0,0,9.988Zm0-6.659H57.312a1.665,1.665,0,0,1,0,3.329H43.994a1.665,1.665,0,0,1,0-3.329Z" transform="translate(24.261 21.936)"/></g></g><g transform="translate(429.004 -7)"><path class="b" d="M0,0H65a0,0,0,0,1,0,0V65a0,0,0,0,1,0,0H30A30,30,0,0,1,0,35V0A0,0,0,0,1,0,0Z" transform="translate(408 6458) rotate(90)"/><text class="c" transform="translate(376 6503.58)"><tspan x="-11.025" y="0">2</tspan></text></g></g></svg>