<svg xmlns="http://www.w3.org/2000/svg" width="53.39" height="47.39" viewBox="0 0 53.39 47.39">
  <path id="Path_453" data-name="Path 453" d="M44.66-43.006l-1.284,9.54a9.718,9.718,0,0,0-6.7,1.422A8.793,8.793,0,0,0,33.331-27a19.983,19.983,0,0,0-.413,7.385H44.66V3.962H22V-20.531q0-12.017,5.688-18.164T44.66-43.006Zm-30.731,0-1.284,9.54a9.718,9.718,0,0,0-6.7,1.422A8.793,8.793,0,0,0,2.6-27a19.983,19.983,0,0,0-.413,7.385H13.929V3.962H-8.73V-20.531q0-12.017,5.688-18.164T13.929-43.006Z" transform="translate(8.73 43.428)" fill="#e63131"/>
</svg>
