<svg xmlns="http://www.w3.org/2000/svg" xmlns:xlink="http://www.w3.org/1999/xlink" width="200" height="200" viewBox="0 0 200 200"><defs><style>.a{fill:#fff;}.b{fill:#c42929;}.c{fill:#e63131;}.d{filter:url(#a);}</style><filter id="a" x="0" y="0" width="200" height="200" filterUnits="userSpaceOnUse"><feOffset dy="15" input="SourceAlpha"/><feGaussianBlur stdDeviation="17.5" result="b"/><feFlood flood-color="#3b3737" flood-opacity="0.161"/><feComposite operator="in" in2="b"/><feComposite in="SourceGraphic"/></filter></defs><g transform="translate(-1687.077 -872.077)"><g class="d" transform="matrix(1, 0, 0, 1, 1687.08, 872.08)"><circle class="a" cx="47.5" cy="47.5" r="47.5" transform="translate(52.5 37.5)"/></g><path class="b" d="M37.873,14.21v8.968A8.977,8.977,0,0,1,28.9,32.147H15.452v2.242a4.5,4.5,0,0,0,4.484,4.484H40.115L46.841,45.6v-26.9a4.5,4.5,0,0,0-4.484-4.484Z" transform="translate(1763.097 933.741)"/><path class="c" d="M6.484,3A4.5,4.5,0,0,0,2,7.484v26.9l6.726-6.726H28.9a4.5,4.5,0,0,0,4.484-4.484V7.484A4.5,4.5,0,0,0,28.9,3Z" transform="translate(1761.949 932.784)"/></g></svg>