<svg width="126" height="126" viewBox="0 0 126 126" fill="none" xmlns="http://www.w3.org/2000/svg">
<path d="M63 126C97.7939 126 126 97.7939 126 63C126 28.2061 97.7939 0 63 0C28.2061 0 0 28.2061 0 63C0 97.7939 28.2061 126 63 126Z" fill="#E63131"/>
<path opacity="0.999" d="M99.2219 51.7376C99.2219 58.9819 98.824 68.9267 95.9406 71.6642C94.9447 72.5268 93.7803 73.1726 92.5213 73.5608C93.3842 69.2567 93.754 64.8685 93.6235 60.4807C93.6235 53.2364 93.207 45.7308 89.9774 40.5768C87.6033 36.7755 83.948 33.9451 61.9298 32.8629C53.2027 32.4464 45.1055 32.88 39.6849 34.5645C40.0594 33.6076 40.5876 32.7184 41.2486 31.9317C44.9848 27.718 56.1763 28.0098 68.4142 28.0019C90.0968 28.0019 94.0877 29.4781 96.4618 33.278C99.6861 38.4387 99.2219 44.4933 99.2219 51.7376Z" fill="white"/>
<path opacity="0.999" d="M85.9256 43.8209C83.5515 40.021 79.5592 38.5461 57.8779 38.5461C51.3642 38.337 44.8438 38.5808 38.3639 39.2756C36.2472 39.5273 34.1964 40.1728 32.3172 41.1788C31.7146 41.524 31.1699 41.9617 30.7031 42.476C27 46.6658 27 58.0177 27 60.555C27 67.477 28.3449 80.2958 30.3715 82.3224C32.3981 84.349 37.9647 85.8664 50.4533 85.8664C51.7796 88.3386 53.7889 92.5377 55.4295 95.7368C55.6727 96.2159 56.0434 96.6186 56.5009 96.9004C56.9583 97.1823 57.4846 97.3324 58.0219 97.3342C58.5591 97.3359 59.0865 97.1894 59.5458 96.9106C60.0051 96.6318 60.3785 96.2315 60.6248 95.754C62.9352 91.2657 65.4698 85.7046 65.4698 85.7046C65.4698 85.7046 80.8351 86.5388 85.3963 82.2044C85.9861 81.5922 86.4416 80.8635 86.7333 80.065C87.3813 78.3107 87.8168 76.4851 88.0304 74.6272C88.512 70.5285 88.7286 66.403 88.679 62.2765C88.679 55.0282 89.1498 48.975 85.9256 43.8209Z" fill="white"/>
</svg>
