<svg xmlns="http://www.w3.org/2000/svg" width="108.34" height="108.34" viewBox="0 0 108.34 108.34"><defs><style>.a{fill:#e63131;}</style></defs><path class="a" d="M77,55.918A5.222,5.222,0,0,1,79.9,56.8l12.2,8.136A8.727,8.727,0,0,0,96.955,66.4H108.34V62.907H96.957a5.23,5.23,0,0,1-2.91-.881L89.118,58.74V0h-66.4V10.485H0V108.34H66.4V97.856H89.118v-14.7c.11-.026.224-.035.334-.061l8.129-2.032a22.746,22.746,0,0,1,5.517-.68h5.242V76.887H103.1a26.281,26.281,0,0,0-6.364.783L88.6,79.7A22.852,22.852,0,0,1,75.9,79.214l-2.945-.982a26.2,26.2,0,0,0-8.3-1.346H49.406a5.249,5.249,0,0,1,5.242-5.242H73.87a5.229,5.229,0,0,0,.613-10.423l1.434-5.3ZM74.789,82.529a26.158,26.158,0,0,0,8.3,1.347c.848,0,1.694-.073,2.536-.155v10.64H66.4V88.645a6.3,6.3,0,0,0,1.344-2.491l1.431-5.3a22.55,22.55,0,0,1,2.669.7Zm-9.114-2.107-1.3,4.819a2.886,2.886,0,0,1-2.782,2.131h-.567a2.88,2.88,0,0,1-2.78-3.631l.907-3.358h5.5C64.995,80.382,65.334,80.408,65.675,80.422Zm-10.144-.04-.66,2.445a6.334,6.334,0,0,0,3,7.171l-.549,2.191,3.39.848.544-2.171h.335a6.347,6.347,0,0,0,1.316-.154v14.133H3.495V13.979H26.211V3.495H85.623V56.411l-3.78-2.52A8.723,8.723,0,0,0,77,52.423h-.135l7.273-26.908a6.379,6.379,0,0,0-6.154-8.04h-.567a6.387,6.387,0,0,0-6.154,4.712L66.4,40.161V10.485h-36.7v3.495h33.2V52.423H59.292A8.641,8.641,0,0,0,54.1,54.17H36.7v3.495H50.43L46.935,61.16H36.7v3.495h6.747l-2.92,2.92a5.422,5.422,0,0,0,5.417,9.059c0,.085-.026.166-.026.253a3.5,3.5,0,0,0,3.495,3.495ZM68.991,68.15H62.458l7.379-27.3,5.994,2Zm-13.406-10.7a5.283,5.283,0,0,1,3.706-1.534h2.852l-1.426,5.274a8.657,8.657,0,0,0-5.856,2.526l-9.1,9.1a1.96,1.96,0,0,1-3.346-1.384,1.947,1.947,0,0,1,.575-1.386Zm1.747,8.737a5.265,5.265,0,0,1,2.4-1.346l-.893,3.306H55.374ZM80.76,24.6l-2.14,7.917-5.994-2L74.632,23.1a2.888,2.888,0,0,1,2.782-2.131h.567A2.881,2.881,0,0,1,80.76,24.6Zm-9.046,9.3,5.994,2-.965,3.567-5.994-2ZM73.87,64.655a1.747,1.747,0,0,1,0,3.495H72.611l.945-3.495Zm0,0"/><path class="a" d="M77.433,80H32V97.474H77.433ZM73.938,93.979H35.495V83.495H73.938Zm0,0" transform="translate(-25.01 -62.526)"/><path class="a" d="M64,112h3.495v3.495H64Zm0,0" transform="translate(-50.021 -87.536)"/><path class="a" d="M96,112h3.495v3.495H96Zm0,0" transform="translate(-75.031 -87.536)"/><path class="a" d="M128,112h3.495v3.495H128Zm0,0" transform="translate(-100.041 -87.536)"/><path class="a" d="M160,112h3.495v3.495H160Zm0,0" transform="translate(-125.052 -87.536)"/><path class="a" d="M192,112h3.495v3.495H192Zm0,0" transform="translate(-150.062 -87.536)"/><path class="a" d="M52.969,218.485H49.474v6.99H35.495V211.495H45.979V208H32v20.969H52.969Zm0,0" transform="translate(-25.01 -162.567)"/><path class="a" d="M79.313,178.344,63.074,194.583l-2.259-2.259-2.471,2.471,4.73,4.73,18.71-18.71Zm0,0" transform="translate(-45.6 -139.388)"/><path class="a" d="M49.474,361.474H35.495V347.495H45.979V344H32v20.969H52.969V354.485H49.474Zm0,0" transform="translate(-25.01 -268.861)"/><path class="a" d="M60.815,328.323l-2.471,2.471,4.73,4.73,18.71-18.71-2.471-2.471L63.074,330.583Zm0,0" transform="translate(-45.6 -245.682)"/><path class="a" d="M256,440h3.495v3.495H256Zm0,0" transform="translate(-200.083 -343.892)"/><path class="a" d="M152,440h19.222v3.495H152Zm0,0" transform="translate(-118.799 -343.892)"/><path class="a" d="M168,216h22.716v3.495H168Zm0,0" transform="translate(-131.304 -168.819)"/></svg>