<svg xmlns="http://www.w3.org/2000/svg" width="195" height="143.864" viewBox="0 0 195 143.864"><defs><style>.a,.b{fill:#e63131;}.a{opacity:0.058;}.c{fill:#fff;font-size:35px;font-family:Inter-Bold, Inter;font-weight:700;letter-spacing:-0.05em;}</style></defs><g transform="translate(-268 -6437)"><g transform="translate(-69 -21)"><path class="a" d="M50,0h80a0,0,0,0,1,0,0V130a0,0,0,0,1,0,0H0a0,0,0,0,1,0,0V50A50,50,0,0,1,50,0Z" transform="translate(402 6458)"/><g transform="translate(409.026 6508.783)"><path class="b" d="M114.6,77.4h-2.172V5.888A5.9,5.9,0,0,0,106.535,0H26.142a1.744,1.744,0,0,0,0,3.487h80.393a2.4,2.4,0,0,1,2.4,2.4V77.4H9.168V5.888a2.4,2.4,0,0,1,2.4-2.4h7.6a1.744,1.744,0,1,0,0-3.487h-7.6A5.9,5.9,0,0,0,5.681,5.888V77.4H3.509A3.513,3.513,0,0,0,0,80.91v8.662a3.513,3.513,0,0,0,3.509,3.509H19.285a1.744,1.744,0,0,0,0-3.487H3.509a.022.022,0,0,1-.022-.022V80.91a.022.022,0,0,1,.022-.022H114.6a.022.022,0,0,1,.022.022v8.662a.022.022,0,0,1-.022.022H26.258a1.744,1.744,0,0,0,0,3.487H114.6a3.513,3.513,0,0,0,3.509-3.509V80.91A3.513,3.513,0,0,0,114.6,77.4Zm0,0" transform="translate(0 0)"/><path class="b" d="M61.141,40.17V95.321a5.242,5.242,0,0,0,5.236,5.236H145.8a5.242,5.242,0,0,0,5.236-5.236V40.17a5.242,5.242,0,0,0-5.236-5.236H66.377A5.241,5.241,0,0,0,61.141,40.17Zm48.224,56.9H72.184V93.452A8.83,8.83,0,0,1,80.262,84.6c.768-.075,2.536-.037,3.494-.037l3.652,5.5a4.024,4.024,0,0,0,6.718.021c.117-.156.107-.159,3.668-5.525,1.453-.005,2.645,0,2.687,0a8.9,8.9,0,0,1,8.883,8.887ZM94.317,49.134c-3.479,5.4-9.773,9.629-16.365,9.629-1.757-.052-2.281.1-2.441-.109V47.242c0-2.249,2.135-4,4.642-4H96.384C96.351,43.435,96.7,45.436,94.317,49.134Zm5.554-5.888h2.509a3.559,3.559,0,0,1,3.152,1.908v0a3.622,3.622,0,0,1,.408,1.653v9.608a1.018,1.018,0,0,1-1.014,1.014H99.243A1.442,1.442,0,0,1,97.8,55.988V50.108C100.254,45.882,99.822,43.549,99.871,43.246Zm5.618,25.475a38.455,38.455,0,0,0,6.594,8.78,11.5,11.5,0,0,1-7.567,4.252,14.783,14.783,0,0,0-5.533-.678v-2.3C102.212,76.308,105.107,72.781,105.489,68.721Zm-6.246-7.807h2.8a1.967,1.967,0,0,0,0,.559v6.353c0,5.966-8.949,11.267-11.53,11.274-2.49-.008-11.537-5.223-11.537-11.274v-5.6a23.182,23.182,0,0,0,15.338-7.507v1.27A4.932,4.932,0,0,0,99.243,60.914ZM95.5,81.011v.723c-.026.031-3.882,5.814-4.214,6.365l-.012-.007-.012.016-.019.028a.537.537,0,0,1-.927,0l0,0c.018.023-4.211-6.351-4.256-6.4v-.458C89.594,83,91.553,83.075,95.5,81.011ZM75.717,69.878v0c.808,3.733,3.7,7,6.848,9.289v1.9a14.758,14.758,0,0,0-5.53.679,11.5,11.5,0,0,1-7.55-4.229A28.4,28.4,0,0,0,75.717,69.878ZM147.552,40.17V95.321a1.751,1.751,0,0,1-1.75,1.749h-32.95V93.452a12.4,12.4,0,0,0-4.155-9.244,13.928,13.928,0,0,0,7.047-5.949,2.156,2.156,0,0,0-.628-2.782c-3.763-2.715-8.635-11.665-9.582-14.493v-.114a4.509,4.509,0,0,0,3.894-4.458V46.805a7.053,7.053,0,0,0-6.921-7.044c-.065,0,1.472,0-22.354,0-4.482,0-8.129,3.356-8.129,7.482V58.675a3.655,3.655,0,0,0,3.409,3.555c-1.608,4.639-4.886,10.282-9,13.249a2.153,2.153,0,0,0-.625,2.784,13.922,13.922,0,0,0,7.038,5.943c-4.856,4.54-4.169,9.283-4.1,12.865H66.377a1.751,1.751,0,0,1-1.749-1.749V40.17a1.751,1.751,0,0,1,1.749-1.749H145.8A1.751,1.751,0,0,1,147.552,40.17Zm0,0" transform="translate(-47.037 -26.875)"/><path class="b" d="M175.006,273.949a0,0,0,0,0,0,0C175.021,273.971,175.02,273.97,175.006,273.949Zm0,0" transform="translate(-134.635 -210.754)"/><path class="b" d="M299.721,93.007h10.5c.061,1.489.042,4.272-.819,5.487a2.073,2.073,0,0,0,2.216,3.194c2.157-.56,7.228-2.632,8.929-9.886a7.3,7.3,0,0,0,3.313-6.141V63.068a7.354,7.354,0,0,0-7.346-7.345h-16.8a7.355,7.355,0,0,0-7.346,7.345V85.661A7.355,7.355,0,0,0,299.721,93.007Zm-3.859-29.939a3.863,3.863,0,0,1,3.859-3.858h16.8a3.863,3.863,0,0,1,3.859,3.858V85.661a3.839,3.839,0,0,1-2.145,3.457,1.741,1.741,0,0,0-.937,1.235,10.187,10.187,0,0,1-3.76,6.628,25.231,25.231,0,0,0,.058-5.877,1.743,1.743,0,0,0-1.736-1.586H299.721a3.863,3.863,0,0,1-3.859-3.858Zm0,0" transform="translate(-224.932 -42.869)"/><path class="b" d="M324.321,93.064h14.068a1.743,1.743,0,0,0,0-3.486H324.321a1.743,1.743,0,0,0,0,3.486Zm0,0" transform="translate(-248.168 -68.915)"/><path class="b" d="M324.321,131.667h14.068a1.744,1.744,0,0,0,0-3.487H324.321a1.744,1.744,0,0,0,0,3.487Zm0,0" transform="translate(-248.168 -98.612)"/><path class="b" d="M324.321,170.272h14.068a1.744,1.744,0,0,0,0-3.487H324.321a1.744,1.744,0,0,0,0,3.487Zm0,0" transform="translate(-248.168 -128.312)"/><path class="b" d="M160.371,160.5a1.912,1.912,0,1,1-1.912-1.911A1.912,1.912,0,0,1,160.371,160.5Zm0,0" transform="translate(-120.436 -122.01)"/><path class="b" d="M207.648,160.5a1.912,1.912,0,1,1-1.912-1.911A1.912,1.912,0,0,1,207.648,160.5Zm0,0" transform="translate(-156.807 -122.01)"/><path class="b" d="M176.288,186.71a1.743,1.743,0,0,0-2.255.995,1.515,1.515,0,0,1-1.264.965h-.315a1.522,1.522,0,0,1-1.245-.923,1.744,1.744,0,0,0-2.285-.925c-2.649,1.114.132,5.609,3.982,5.335a4.97,4.97,0,0,0,4.377-3.19,1.485,1.485,0,0,0,.086-.3A1.742,1.742,0,0,0,176.288,186.71Zm0,0" transform="translate(-129.154 -143.55)"/></g></g><g transform="translate(-75)"><path class="b" d="M0,0H65a0,0,0,0,1,0,0V65a0,0,0,0,1,0,0H30A30,30,0,0,1,0,35V0A0,0,0,0,1,0,0Z" transform="translate(408 6458) rotate(90)"/><text class="c" transform="translate(376 6503.58)"><tspan x="-8.564" y="0">1</tspan></text></g></g></svg>