<svg xmlns="http://www.w3.org/2000/svg" width="392" height="113.419" viewBox="0 0 392 113.419"><defs><style>.a{fill:#fff;stroke:#fff;stroke-width:2px;}.b{fill:#1d1d1d;}.c{fill:#696969;}.d,.i{fill:#797979;}.e{fill:#e42f2f;}.f{fill:#c92b2b;}.g{fill:#050605;opacity:0.1;}.h{fill:#be2828;}.i{stroke:#121212;stroke-linecap:square;stroke-linejoin:bevel;stroke-width:5px;}.j{stroke:none;}.k{fill:none;}</style></defs><g transform="translate(2223.65 -1430)"><g transform="translate(-2092.214 1452.517)"><path class="a" d="M-117.16-22.83h5.9v-9.907h6.865c5.575-.092,5.575-.092,6.819-.507,3.548-1.06,4.976-3.87,4.976-9.584,0-3.732-.369-5.714-1.382-7.418a7.272,7.272,0,0,0-5.99-3.225c-1.152-.092-1.474-.092-4.746-.092H-117.16Zm5.9-14.975V-48.679h7.234c2.488,0,3.041.092,3.87.461,1.2.645,1.567,1.889,1.567,5.3,0,4.423-.829,5.115-6.036,5.115Zm39.58-10.874h15.113v-4.884H-77.58V-22.83H-56.43v-4.884H-71.682v-8.662h14.33v-4.331h-14.33Zm53.818,4.1v-1.106c0-2.672-.553-4.516-1.751-5.852-1.521-1.7-4.009-2.3-9.768-2.3-5.714,0-8.11.415-10,1.843-1.659,1.2-2.442,3.456-2.442,7.1,0,4.239.968,6.451,3.41,7.649,1.567.737,2.672.922,7.925,1.244,5.115.323,5.115.323,5.852.6,1.244.415,1.7,1.382,1.7,3.41,0,2.12-.323,3.318-1.106,3.87-.875.691-1.843.829-5.3.829-4.792,0-5.529-.138-6.266-1.382-.507-.783-.645-1.567-.645-3.87h-5.667a22.8,22.8,0,0,0,.369,4.7,5.846,5.846,0,0,0,2.442,3.778c2.027,1.2,3.917,1.521,9.492,1.521,6.4,0,8.755-.507,10.6-2.3,1.336-1.336,1.889-3.41,1.889-7.234,0-3.917-.645-5.714-2.534-7-1.474-1.06-3.225-1.382-8.386-1.7-4.792-.276-5.068-.276-5.852-.507-1.474-.461-2.027-1.474-2.027-3.686,0-3.5,1.106-4.193,6.681-4.193,4.746,0,5.714.691,5.714,4.055v.553ZM11.165-48.4h9.077v-5.161H-3.626V-48.4H5.267V-22.83h5.9Z" transform="translate(179.259 53.84)"/><path class="a" d="M-215.347-36.3h6.808v-3.87h-17.9v3.87h6.67v19.18h4.423Zm19.456-.207h11.335v-3.663h-15.758v23.05h15.862v-3.663h-11.439v-6.5h10.747v-3.248h-10.747Zm20.562,19.387h4.423v-7.672h6.22c2.454-.069,3.525,1,3.456,3.525v4.147h4.458v-5.011c.035-2.8-1.279-4.354-3.905-4.493V-26.8c3.352-.657,4.147-1.9,4.147-6.5,0-5.149-1.9-6.877-7.464-6.877h-11.335Zm4.423-11.439v-7.81h6.5c2.834,0,3.387.622,3.387,3.87,0,1.97-.173,2.661-.9,3.248a4.085,4.085,0,0,1-2.8.691Zm50.385-11.611h-7.257l-4.078,10.713c-.38,1.071-.657,1.866-1.555,4.769l-.518,1.59h-.138l-.518-1.624c-.968-2.937-1.21-3.7-1.624-4.769l-4.112-10.678h-7.119v23.05h4.354V-29.7c0-1.417-.035-2.143-.173-5.045l-.1-1.659h.138l.518,1.59c.968,2.972,1.21,3.7,1.659,4.8l5.115,12.89h3.974l5.08-12.994c.38-1,.622-1.8,1.59-4.8l.518-1.59h.138l-.069,1.693c-.138,3.007-.173,3.456-.173,5.115v12.579h4.354Zm14.341,0H-110.6v23.05h4.423Zm31.309,0h-4.389V-26.9c0,2.143,0,2.315.1,4.458l.035,1.486h-.138l-.9-1.9c-1.555-3.318-1.832-3.905-2.7-5.633l-6.013-11.681h-7.4v23.05h4.354V-30.358c0-2.143,0-2.315-.1-4.527l-.035-1.486h.138l.76,1.624c1.382,3.179,1.832,4.112,2.246,4.976l6.6,12.648h7.43Zm24.087,18.627,1.486,4.423h4.527l-7.81-23.05h-6.531l-7.672,23.05h4.631l1.417-4.423Zm-1-3.283H-59.7l3.94-11.957ZM-29.7-36.3h6.808v-3.87H-40.8v3.87h6.67v19.18H-29.7ZM-4.924-40.38a27.364,27.364,0,0,0-4.873.311,6.471,6.471,0,0,0-4.285,2.7c-1.071,1.693-1.313,3.387-1.313,9.331A32.111,32.111,0,0,0-15.188-23c.415,2.557,1.348,4.043,3.179,5.045,1.417.76,3.145,1.037,6.566,1.037a28.106,28.106,0,0,0,5.011-.311,6.254,6.254,0,0,0,4.423-2.868c.968-1.728,1.175-3.248,1.175-8.778a35,35,0,0,0-.242-5.46c-.449-2.7-1.624-4.354-3.7-5.287C-.121-40.173-1.641-40.38-4.924-40.38ZM-10.9-31.464c.035-2.281.346-3.49,1.106-4.216.726-.726,1.659-.9,4.458-.9,2.592,0,3.456.069,4.216.38A3.081,3.081,0,0,1,.5-33.607a24.568,24.568,0,0,1,.173,4.8c0,4.32-.035,4.907-.449,6.048C-.363-21.1-1.3-20.717-4.683-20.717c-3.525,0-4.562-.173-5.218-.933-.829-.968-1-2-1-6.048ZM14.324-17.123h4.423v-7.672h6.22c2.454-.069,3.525,1,3.456,3.525v4.147h4.458v-5.011c.035-2.8-1.279-4.354-3.905-4.493V-26.8c3.352-.657,4.147-1.9,4.147-6.5,0-5.149-1.9-6.877-7.464-6.877H14.324Zm4.423-11.439v-7.81h6.5c2.834,0,3.387.622,3.387,3.87,0,1.97-.173,2.661-.9,3.248a4.085,4.085,0,0,1-2.8.691Z" transform="translate(226.44 86.606)"/></g><g transform="translate(-2223.65 1430)"><circle class="b" cx="45.5" cy="45.5" r="45.5" transform="translate(11.65 10.741)"/><path class="c" d="M103.726,51.984A47.338,47.338,0,0,0,61.435,9.693V0H51.984V9.693A47.338,47.338,0,0,0,9.693,51.984H0v9.452H9.693a47.338,47.338,0,0,0,42.291,42.291v9.692h9.452v-9.693a47.338,47.338,0,0,0,42.291-42.291h9.692V51.984h-9.693ZM94.19,61.435A37.84,37.84,0,0,1,61.436,94.19V85.064H51.984V94.19A37.839,37.839,0,0,1,19.229,61.436h9.125V51.984H19.229A37.839,37.839,0,0,1,51.984,19.229v9.125h9.452V19.229A37.839,37.839,0,0,1,94.19,51.984H85.064v9.452H94.19Z" transform="translate(0.082)"/><path class="d" d="M56.576,0H51.984V9.693A47.338,47.338,0,0,0,9.693,51.984H0v9.452H9.693a47.338,47.338,0,0,0,42.291,42.291v9.692h4.761l-.12-28.355-.2-56.71Zm.049,85.064h-4.64V94.19A37.839,37.839,0,0,1,19.229,61.436h9.125V51.984H19.229A37.839,37.839,0,0,1,51.984,19.229v9.125h4.439Z"/><g transform="translate(25.11 0.97)"><path class="e" d="M452.034,54h0c-.157.226-5.184,7.445-5.184,9.633s2.226,7.781,2.226,7.781,2.02-.31,5.666-.532c1.978-.119,4.434-.21,7.3-.21V54Z" transform="translate(-430.217 -31.647)"/><path class="e" d="M496.554,54h-10V70.691h0a94.2,94.2,0,0,1,12.965.742s2.226-5.559,2.226-7.781S496.554,54,496.554,54Z" transform="translate(-454.729 -31.647)"/><path class="e" d="M439.432,127.861c3.336,19.27,4.429,25.187,4.429,25.187A34.014,34.014,0,0,0,448,156.177c2.526,1.642,5.968,3.438,5.968,3.438l1.028-56.834-12.6.995S436.1,108.6,439.432,127.861Z" transform="translate(-425.037 -61.766)"/><path class="e" d="M419.663,108.481c-1.569-.061-9.87.087-11.572,9.465a17.533,17.533,0,0,1,9.53-3.975A18.281,18.281,0,0,1,419.663,108.481Z" transform="translate(-408.09 -65.107)"/><path class="e" d="M423.343,52.928l-13.183-8.05.922-1.93a78.335,78.335,0,0,0,3.443-7.922v-.143c-.1-.794-.436-2.669-.876-5.028s-.975-5.123-1.507-7.815l5.019,2.43c.888,4.6,1.844,9.745,1.844,10.663,0,.465,0,1.5-3.018,7.942l5.375,3.28A45.459,45.459,0,0,0,423.343,52.928Z" transform="translate(-408.766 -13.117)"/><path class="e" d="M534.75,108.481a18.272,18.272,0,0,1,2.054,5.49,17.535,17.535,0,0,1,9.518,3.975C544.62,108.568,536.318,108.42,534.75,108.481Z" transform="translate(-482.684 -65.107)"/><path class="e" d="M540.762,42.948a78.84,78.84,0,0,1-3.443-7.923c.161-1.346,1.293-7.378,2.4-12.986L534.7,24.47c-.888,4.6-1.844,9.745-1.844,10.663,0,.465,0,1.5,3.018,7.942L530.5,46.36a47.809,47.809,0,0,1-1.982,6.564l13.183-8.05Z" transform="translate(-479.439 -13.117)"/><g transform="translate(22.047)"><path class="e" d="M465.958,10.364a35.711,35.711,0,0,1,4.557-3.19,4.669,4.669,0,0,0,0-1.007c-.456-3.828-.456-4.785.027-6.216l-3.031,2.5a6.1,6.1,0,0,0-2.074,6.107C465.607,9.179,465.757,9.79,465.958,10.364Z" transform="translate(-465.278 0.05)"/><path class="f" d="M496.265,7.224a35.716,35.716,0,0,1,4.557,3.19c.2-.574.373-1.185.519-1.782a6.089,6.089,0,0,0-2.074-6.107L496.256,0c.483,1.431.488,2.388.023,6.216a4.662,4.662,0,0,0-.014,1.007Z" transform="translate(-482.132 0.023)"/></g><path class="g" d="M415.684,60.9l-5.524,3.187.922-1.859a74.025,74.025,0,0,0,3.443-7.632V54.5Z" transform="translate(-408.766 -31.955)"/><path class="h" d="M548.5,60.9l5.524,3.187-.926-1.859a74.061,74.061,0,0,1-3.443-7.632V54.5Z" transform="translate(-491.776 -31.955)"/><path class="f" d="M454.722,70.932c-3.646.222-5.666.532-5.666.532s-2.227-5.574-2.227-7.781,5.038-9.407,5.184-9.633h0s-2.36,9.744-.119,12.361a19.012,19.012,0,0,1,2.827,4.522Z" transform="translate(-430.204 -31.678)"/><path class="h" d="M505.63,70.932c3.646.222,5.666.532,5.666.532s2.226-5.559,2.226-7.781-5.027-9.407-5.184-9.633h0s2.357,9.744.115,12.361A19.012,19.012,0,0,0,505.63,70.932Z" transform="translate(-466.51 -31.678)"/><path class="e" d="M465.24,23.309v5.559h8.152V16.27S465.24,20.344,465.24,23.309Z" transform="translate(-441.571 -8.351)"/><path class="f" d="M486.55,16.27v12.6H494.7V23.309C494.7,20.344,486.55,16.27,486.55,16.27Z" transform="translate(-454.729 -8.351)"/><path class="h" d="M454.024,127.861c-3.336,19.27-4.429,25.187-4.429,25.187a34.012,34.012,0,0,1-4.138,3.129c-2.526,1.642-5.968,3.438-5.968,3.438l-1.028-56.834,12.6.995S457.352,108.6,454.024,127.861Z" transform="translate(-404.935 -61.766)"/></g><g class="i" transform="translate(50.792 50.792)"><circle class="j" cx="5.917" cy="5.917" r="5.917"/><circle class="k" cx="5.917" cy="5.917" r="8.417"/></g></g></g></svg>