<svg xmlns="http://www.w3.org/2000/svg" width="209.784" height="169.813" viewBox="0 0 209.784 169.813"><g transform="translate(2119.65 -1335)"><g transform="translate(-2118.65 1448.025)"><path d="M-117.16-29.016h4.721v-7.93h5.5c4.463-.074,4.463-.074,5.459-.406,2.84-.848,3.984-3.1,3.984-7.672,0-2.988-.3-4.574-1.107-5.939a5.822,5.822,0,0,0-4.8-2.582c-.922-.074-1.18-.074-3.8-.074h-9.959ZM-112.439-41v-8.7h5.791c1.992,0,2.434.074,3.1.369.959.516,1.254,1.512,1.254,4.242,0,3.541-.664,4.094-4.832,4.094Zm31.684-8.7h12.1v-3.91h-16.82v24.6h16.93v-3.91H-80.754v-6.934h11.471v-3.467H-80.754Zm43.082,3.283v-.885A6.653,6.653,0,0,0-39.074-52c-1.217-1.365-3.209-1.844-7.82-1.844-4.574,0-6.492.332-8,1.475-1.328.959-1.955,2.766-1.955,5.68,0,3.393.775,5.164,2.73,6.123,1.254.59,2.139.738,6.344,1,4.094.258,4.094.258,4.684.48,1,.332,1.365,1.107,1.365,2.73,0,1.7-.258,2.656-.885,3.1-.7.553-1.475.664-4.242.664-3.836,0-4.426-.111-5.016-1.107-.406-.627-.516-1.254-.516-3.1h-4.537a18.25,18.25,0,0,0,.3,3.762,4.68,4.68,0,0,0,1.955,3.025c1.623.959,3.135,1.217,7.6,1.217,5.127,0,7.008-.406,8.484-1.844,1.07-1.07,1.512-2.73,1.512-5.791,0-3.135-.516-4.574-2.029-5.607-1.18-.848-2.582-1.107-6.713-1.365-3.836-.221-4.057-.221-4.684-.406-1.18-.369-1.623-1.18-1.623-2.951,0-2.8.885-3.357,5.348-3.357,3.8,0,4.574.553,4.574,3.246v.443Zm23.238-3.061h7.266v-4.131H-26.275v4.131h7.119v20.471h4.721Z" transform="translate(166.871 53.84)" fill="#fff" stroke="#fff" stroke-width="2"/><path d="M-217.56-37.116h5.45v-3.1h-14.33v3.1h5.339v15.353h3.541Zm15.575-.166h9.074v-2.932h-12.615v18.452h12.7v-2.932h-9.157v-5.2h8.6v-2.6h-8.6Zm16.46,15.519h3.541V-27.9H-177c1.964-.055,2.822.8,2.766,2.822v3.32h3.569v-4.011c.028-2.241-1.024-3.486-3.126-3.6v-.138c2.683-.526,3.32-1.522,3.32-5.2,0-4.122-1.522-5.505-5.975-5.505h-9.074Zm3.541-9.157v-6.252h5.2c2.268,0,2.711.5,2.711,3.1,0,1.577-.138,2.13-.719,2.6a3.271,3.271,0,0,1-2.241.553Zm40.334-9.3h-5.809l-3.264,8.576c-.3.858-.526,1.494-1.245,3.818l-.415,1.273h-.111l-.415-1.3c-.775-2.351-.968-2.96-1.3-3.818l-3.292-8.548h-5.7v18.452h3.486v-10.07c0-1.134-.028-1.715-.138-4.039l-.083-1.328h.111l.415,1.273c.775,2.379.968,2.96,1.328,3.845l4.094,10.319h3.181l4.067-10.4c.3-.8.5-1.439,1.273-3.845l.415-1.273h.111L-145-35.926c-.111,2.407-.138,2.766-.138,4.094v10.07h3.486Zm11.481,0h-3.541v18.452h3.541Zm25.063,0h-3.513v10.623c0,1.715,0,1.853.083,3.569l.028,1.19h-.111l-.719-1.522c-1.245-2.656-1.466-3.126-2.158-4.509l-4.814-9.35h-5.92v18.452h3.486v-10.6c0-1.715,0-1.853-.083-3.624l-.028-1.19h.111l.609,1.3c1.107,2.545,1.466,3.292,1.8,3.984l5.284,10.125h5.948ZM-85.824-25.3l1.19,3.541h3.624l-6.252-18.452h-5.228l-6.141,18.452h3.707l1.134-3.541Zm-.8-2.628h-6.335l3.154-9.572Zm17.677-9.184h5.45v-3.1h-14.33v3.1h5.339v15.353h3.541Zm19.835-3.264a21.9,21.9,0,0,0-3.9.249,5.18,5.18,0,0,0-3.43,2.158C-57.3-36.618-57.5-35.262-57.5-30.5a25.705,25.705,0,0,0,.166,4.039,4.964,4.964,0,0,0,2.545,4.039c1.134.609,2.517.83,5.256.83a22.5,22.5,0,0,0,4.011-.249,5.007,5.007,0,0,0,3.541-2.3c.775-1.383.941-2.6.941-7.027a28.018,28.018,0,0,0-.194-4.371,5.082,5.082,0,0,0-2.96-4.233A12.515,12.515,0,0,0-49.114-40.38ZM-53.9-33.243c.028-1.826.277-2.794.885-3.375.581-.581,1.328-.719,3.569-.719a9.149,9.149,0,0,1,3.375.3,2.466,2.466,0,0,1,1.3,2.075,19.667,19.667,0,0,1,.138,3.845c0,3.458-.028,3.928-.36,4.841-.47,1.328-1.217,1.632-3.928,1.632-2.822,0-3.652-.138-4.177-.747-.664-.775-.8-1.6-.8-4.841Zm20.195,11.481h3.541V-27.9h4.979c1.964-.055,2.822.8,2.766,2.822v3.32h3.569v-4.011c.028-2.241-1.024-3.486-3.126-3.6v-.138c2.683-.526,3.32-1.522,3.32-5.2,0-4.122-1.522-5.505-5.975-5.505h-9.074Zm3.541-9.157v-6.252h5.2c2.268,0,2.711.5,2.711,3.1,0,1.577-.138,2.13-.719,2.6a3.27,3.27,0,0,1-2.241.553Z" transform="translate(226.44 77.384)" fill="#fff" stroke="#fff" stroke-width="2"/></g><g transform="translate(-2060.65 1335)"><circle cx="36.423" cy="36.423" r="36.423" transform="translate(9.326 8.598)" fill="#1a1a1a"/><path d="M83.034,41.614A37.9,37.9,0,0,0,49.18,7.759V0H41.613V7.759A37.9,37.9,0,0,0,7.759,41.614H0V49.18H7.759A37.9,37.9,0,0,0,41.614,83.034v7.759H49.18V83.034A37.9,37.9,0,0,0,83.034,49.18h7.759V41.613H83.034ZM75.4,49.18A30.291,30.291,0,0,1,49.18,75.4v-7.3H41.614V75.4a30.291,30.291,0,0,1-26.22-26.22h7.3V41.614H15.393a30.291,30.291,0,0,1,26.22-26.22v7.3H49.18V15.393A30.291,30.291,0,0,1,75.4,41.613h-7.3V49.18H75.4Z" transform="translate(0.066)" fill="#696969"/><path d="M45.289,0H41.613V7.759A37.9,37.9,0,0,0,7.759,41.614H0V49.18H7.759A37.9,37.9,0,0,0,41.614,83.034v7.759h3.811l-.1-22.7-.162-45.4Zm.039,68.095H41.614V75.4a30.291,30.291,0,0,1-26.22-26.22h7.3V41.614H15.393a30.291,30.291,0,0,1,26.22-26.22v7.3h3.553Z" fill="#797979"/><g transform="translate(20.1 0.776)"><path d="M451,54h0c-.126.181-4.15,5.959-4.15,7.711s1.782,6.229,1.782,6.229,1.617-.248,4.535-.426c1.583-.095,3.549-.168,5.846-.168V54Z" transform="translate(-433.535 -36.106)" fill="#e42f2f"/><path d="M494.558,54H486.55V67.361h0a75.412,75.412,0,0,1,10.379.594s1.782-4.45,1.782-6.229S494.558,54,494.558,54Z" transform="translate(-461.077 -36.106)" fill="#e42f2f"/><path d="M439.239,122.857c2.67,15.425,3.545,20.163,3.545,20.163a27.229,27.229,0,0,0,3.312,2.5c2.022,1.314,4.777,2.752,4.777,2.752l.823-45.5-10.085.8S436.574,107.441,439.239,122.857Z" transform="translate(-427.715 -69.947)" fill="#e42f2f"/><path d="M417.354,108.48a8.766,8.766,0,0,0-9.264,7.577,14.036,14.036,0,0,1,7.629-3.182A14.633,14.633,0,0,1,417.354,108.48Z" transform="translate(-408.09 -73.759)" fill="#e42f2f"/><path d="M420.713,46.766,410.16,40.322l.738-1.545a62.7,62.7,0,0,0,2.756-6.342v-.114c-.083-.636-.349-2.136-.7-4.025s-.781-4.1-1.207-6.256l4.018,1.946c.71,3.681,1.476,7.8,1.476,8.536,0,.372,0,1.2-2.416,6.358l4.3,2.626A36.391,36.391,0,0,0,420.713,46.766Z" transform="translate(-409.044 -14.897)" fill="#e42f2f"/><path d="M534.75,108.48a14.628,14.628,0,0,1,1.645,4.395,14.037,14.037,0,0,1,7.619,3.182A8.766,8.766,0,0,0,534.75,108.48Z" transform="translate(-493.071 -73.759)" fill="#e42f2f"/><path d="M538.32,38.777a63.1,63.1,0,0,1-2.756-6.342c.129-1.078,1.035-5.907,1.923-10.4l-4.018,1.946c-.711,3.681-1.476,7.8-1.476,8.536,0,.372,0,1.2,2.416,6.358l-4.3,2.629a38.255,38.255,0,0,1-1.586,5.255l10.553-6.444Z" transform="translate(-489.23 -14.897)" fill="#e42f2f"/><g transform="translate(17.649)"><path d="M465.822,8.286a28.586,28.586,0,0,1,3.648-2.554,3.732,3.732,0,0,0,0-.806c-.365-3.065-.365-3.831.022-4.976l-2.426,2a4.882,4.882,0,0,0-1.66,4.889C465.541,7.338,465.662,7.827,465.822,8.286Z" transform="translate(-465.278 0.05)" fill="#e42f2f"/><path d="M496.261,5.783a28.592,28.592,0,0,1,3.648,2.554c.16-.46.3-.949.416-1.427a4.874,4.874,0,0,0-1.66-4.889L496.254,0c.387,1.146.39,1.912.018,4.976a3.735,3.735,0,0,0-.011.806Z" transform="translate(-484.947 0.018)" fill="#c92b2b"/></g><path d="M414.582,59.62l-4.422,2.551.738-1.488a59.252,59.252,0,0,0,2.756-6.11V54.5Z" transform="translate(-409.044 -36.453)" fill="#050605" opacity="0.1"/><path d="M548.5,59.62l4.422,2.551-.741-1.488a59.281,59.281,0,0,1-2.756-6.11V54.5Z" transform="translate(-503.092 -36.453)" fill="#be2828"/><path d="M453.148,67.565c-2.918.178-4.535.426-4.535.426s-1.782-4.462-1.782-6.229,4.033-7.531,4.15-7.711h0s-1.89,7.8-.1,9.895a15.219,15.219,0,0,1,2.263,3.62Z" transform="translate(-433.521 -36.141)" fill="#c92b2b"/><path d="M505.63,67.565c2.919.178,4.536.426,4.536.426s1.782-4.45,1.782-6.229-4.024-7.531-4.15-7.711h0s1.886,7.8.092,9.895A15.218,15.218,0,0,0,505.63,67.565Z" transform="translate(-474.314 -36.141)" fill="#be2828"/><path d="M465.24,21.9v4.45h6.526V16.27S465.24,19.531,465.24,21.9Z" transform="translate(-446.293 -9.931)" fill="#e42f2f"/><path d="M486.55,16.27V26.355h6.526V21.9C493.076,19.531,486.55,16.27,486.55,16.27Z" transform="translate(-461.077 -9.931)" fill="#c92b2b"/><path d="M450.919,122.857c-2.67,15.425-3.545,20.163-3.545,20.163a27.227,27.227,0,0,1-3.312,2.5c-2.022,1.314-4.777,2.752-4.777,2.752l-.823-45.5,10.085.8S453.583,107.441,450.919,122.857Z" transform="translate(-411.623 -69.947)" fill="#be2828"/></g><g transform="translate(40.66 40.66)" fill="#797979" stroke="#121212" stroke-linecap="square" stroke-linejoin="bevel" stroke-width="5"><circle cx="4.737" cy="4.737" r="4.737" stroke="none"/><circle cx="4.737" cy="4.737" r="7.237" fill="none"/></g></g></g></svg>