<svg xmlns="http://www.w3.org/2000/svg" width="27.964" height="30.003" viewBox="0 0 27.964 30.003"><path d="M26.01,21.074c-1.811-1.55-3.654-2.493-5.443-.942l-1.07.933c-.782.681-2.236,3.855-7.857-2.616s-2.278-7.464-1.491-8.136l1.075-.938c1.779-1.55,1.107-3.5-.178-5.516l-.773-1.217C8.982.64,7.574-.678,5.79.868l-.965.846A9.035,9.035,0,0,0,1.294,7.706c-.645,4.258,1.39,9.138,6.042,14.489s9.2,8.045,13.51,8a9.1,9.1,0,0,0,6.426-2.662l.965-.846c1.784-1.546.677-3.124-1.139-4.674Z" transform="translate(-1.178 -0.191)" fill="#e63131"/></svg>